<svg width="368" height="298" viewBox="0 0 368 298" fill="none" xmlns="http://www.w3.org/2000/svg">
<path d="M238.495 32.5345H133.79C133.258 32.5345 132.732 32.6392 132.241 32.8426C131.75 33.0461 131.304 33.3443 130.929 33.7203C130.553 34.0962 130.255 34.5424 130.052 35.0335C129.849 35.5246 129.745 36.0509 129.746 36.5823C129.746 43.608 126.955 50.3459 121.987 55.3139C117.019 60.2818 110.281 63.0728 103.255 63.0728H25.0401C23.9686 63.0728 22.941 63.4984 22.1833 64.2561C21.4256 65.0137 21 66.0413 21 67.1128V130.443C21 220.094 92.3102 294.822 181.957 295.986C273.035 297.169 347.245 223.69 347.245 132.875V6.04394C347.245 4.97142 346.819 3.94283 346.06 3.18444C345.302 2.42606 344.273 2 343.201 2H242.539C242.008 1.99949 241.482 2.10362 240.992 2.30642C240.501 2.50923 240.055 2.80674 239.68 3.18194C239.304 3.55715 239.006 4.00269 238.803 4.49311C238.6 4.98353 238.495 5.5092 238.495 6.04007V32.5345Z" fill="#6EDBFF" stroke="white" stroke-width="2" stroke-miterlimit="10"/>
<path d="M16.561 220.904L188.538 291L259.134 189.287L110.245 141.223L16.561 220.904Z" fill="white" stroke="#6EDBFF" stroke-width="1.2" stroke-linecap="round" stroke-linejoin="round"/>
<path d="M39.0884 216.114L85.3493 176.357L96.255 191.792L59.3842 224.417L39.0884 216.114Z" fill="#6EDBFF"/>
<path d="M68.4207 227.307L101.323 197.206" stroke="#6EDBFF" stroke-width="1.2" stroke-linecap="round" stroke-linejoin="round"/>
<path d="M75.4465 229.521L106.387 200.149" stroke="#6EDBFF" stroke-width="1.2" stroke-linecap="round" stroke-linejoin="round"/>
<path d="M81.3015 231.779L112.697 202.782" stroke="#6EDBFF" stroke-width="1.2" stroke-linecap="round" stroke-linejoin="round"/>
<path d="M97.4215 237.722L114.593 244.659L126.135 232.485L110.046 225.676L97.4215 237.722Z" stroke="#6EDBFF" stroke-width="1.2" stroke-linecap="round" stroke-linejoin="round"/>
<path d="M121.093 247.284L132.812 234.412L148.87 240.771L137.748 253.484L121.093 247.284Z" stroke="#6EDBFF" stroke-width="1.2" stroke-linecap="round" stroke-linejoin="round"/>
<path d="M144.668 256.666L155.079 243.953L171.026 249.9L160.673 262.627L144.668 256.666Z" stroke="#6EDBFF" stroke-width="1.2" stroke-linecap="round" stroke-linejoin="round"/>
<path d="M167.345 266.202L177.478 252.693L192.754 258.743L183.43 272.193L167.345 266.202Z" stroke="#6EDBFF" stroke-width="1.2" stroke-linecap="round" stroke-linejoin="round"/>
<path d="M174.393 268.826L184.185 266.577L177.12 251.018" stroke="black" stroke-width="1.2" stroke-linecap="round" stroke-linejoin="round"/>
<path d="M128.963 250.47L138.76 248.221L131.69 232.662" stroke="black" stroke-width="1.2" stroke-linecap="round" stroke-linejoin="round"/>
<path d="M106.104 241.567L115.897 239.317L108.831 223.759" stroke="black" stroke-width="1.2" stroke-linecap="round" stroke-linejoin="round"/>
<path d="M118.305 222.141L123.886 217.342" stroke="#6EDBFF" stroke-width="1.2" stroke-linecap="round" stroke-linejoin="round"/>
<path d="M125.468 224.417L146.789 205.513" stroke="#6EDBFF" stroke-width="1.2" stroke-linecap="round" stroke-linejoin="round"/>
<path d="M141.681 231.103L163.258 207.241" stroke="#6EDBFF" stroke-width="1.2" stroke-linecap="round" stroke-linejoin="round"/>
<path d="M149.025 233.303L160.479 220.727" stroke="#6EDBFF" stroke-width="1.2" stroke-linecap="round" stroke-linejoin="round"/>
<path d="M162.441 239.976L178.609 220.396" stroke="#6EDBFF" stroke-width="1.2" stroke-linecap="round" stroke-linejoin="round"/>
<path d="M169.913 242.609L182.405 227.431" stroke="#6EDBFF" stroke-width="1.2" stroke-linecap="round" stroke-linejoin="round"/>
<path d="M184.818 248.866L203.978 223.082" stroke="#6EDBFF" stroke-width="1.2" stroke-linecap="round" stroke-linejoin="round"/>
<path d="M191.954 251.633L207.901 229.441" stroke="#6EDBFF" stroke-width="1.2" stroke-linecap="round" stroke-linejoin="round"/>
<path d="M236.094 59.7883L351.881 93.3848L290.936 235.782L172.86 199.503L236.094 59.7883Z" fill="white" stroke="#6EDBFF" stroke-width="1.2" stroke-linecap="round" stroke-linejoin="round"/>
<path d="M320.1 97.8435L332.911 101.458L328.602 111.688L315.956 107.525L320.1 97.8435Z" fill="#6EDBFF"/>
<path d="M324.621 116.014L313.742 112.695" stroke="#6EDBFF" stroke-width="1.2" stroke-linecap="round" stroke-linejoin="round"/>
<path d="M320.949 120.552L311.55 117.816" stroke="#6EDBFF" stroke-width="1.2" stroke-linecap="round" stroke-linejoin="round"/>
<path d="M315.531 124.98L309.323 123.013" stroke="#6EDBFF" stroke-width="1.2" stroke-linecap="round" stroke-linejoin="round"/>
<path d="M310.56 130.167L306.764 128.992" stroke="#6EDBFF" stroke-width="1.2" stroke-linecap="round" stroke-linejoin="round"/>
<path d="M296.698 139.641L312.094 144.674L285.148 209.362L268.851 203.962L296.698 139.641Z" stroke="#6EDBFF" stroke-width="1.2" stroke-linecap="round" stroke-linejoin="round"/>
<path d="M284.811 167.104C284.811 167.104 288.019 170.485 290.587 176.764C293.154 183.043 293.715 187.215 293.715 187.215L285.138 209.362L268.855 203.971L284.811 167.104Z" fill="#6EDBFF"/>
<path d="M293.287 161.183C297.275 161.183 300.507 157.951 300.507 153.963C300.507 149.975 297.275 146.742 293.287 146.742C289.299 146.742 286.067 149.975 286.067 153.963C286.067 157.951 289.299 161.183 293.287 161.183Z" fill="#6EDBFF"/>
<path d="M212.625 24L339.102 53.4428L268.502 218.394L145.264 180.533L212.625 24Z" fill="white" stroke="#6EDBFF" stroke-width="1.2" stroke-linecap="round" stroke-linejoin="round"/>
<path d="M209.311 94.2688L226.925 98.6832L217.088 125.382L203.483 107.98L209.311 94.2688Z" fill="#6EDBFF"/>
<path d="M221.37 132.514L230.318 107.339L247.468 111.511L238.14 137.038L221.37 132.514Z" fill="#6EDBFF"/>
<path d="M248.635 123.941L243.129 138.629L257.623 142.297L263.142 127.838L248.635 123.941Z" fill="#6EDBFF"/>
<path d="M229.019 148.66C229.336 147.834 229.538 146.969 229.62 146.088L231.657 137.414L228.895 141.391C228.516 140.493 228 139.658 227.367 138.917L166.788 67.9454L154.946 38.8694C154.577 37.9663 154.027 37.1486 153.329 36.4669C152.631 35.7852 151.801 35.2541 150.89 34.9065C149.978 34.5589 149.005 34.4023 148.031 34.4462C147.056 34.4901 146.101 34.7338 145.225 35.162L40.595 86.4294L36.0392 82.6911L34.1965 93.0312C33.8373 94.8794 34.0532 96.7933 34.8152 98.515L49.4592 128.174L114.885 217.117C116.302 219.053 118.415 220.364 120.778 220.776C123.142 221.188 125.574 220.668 127.562 219.326L225.44 153.154C227.054 152.079 228.302 150.537 229.019 148.735V148.735V148.66Z" fill="black" stroke="black" stroke-width="1.2" stroke-linecap="round" stroke-linejoin="round"/>
<path d="M265.537 136.512L262.545 143.662L276.16 147.356L279.147 139.906L265.537 136.512Z" fill="#6EDBFF"/>
<path d="M36.7198 89.191L51.8235 117.803L117.222 206.746C118.64 208.682 120.752 209.993 123.116 210.405C125.48 210.817 127.911 210.297 129.9 208.955L227.782 142.796C228.906 142.036 229.857 141.047 230.572 139.894C231.288 138.741 231.752 137.45 231.934 136.105C232.116 134.76 232.013 133.392 231.63 132.09C231.247 130.788 230.594 129.582 229.713 128.55L169.131 57.5698L155.75 29.1875C154.191 25.3696 148.967 24.1014 145.264 25.9176L40.6305 77.1762C39.5719 77.6942 38.6282 78.4196 37.8554 79.3094C37.0825 80.1991 36.4963 81.2351 36.1316 82.3557C35.7668 83.4764 35.6309 84.6589 35.732 85.8331C35.833 87.0073 36.169 88.1492 36.7198 89.191V89.191Z" fill="#6EDBFF"/>
<path d="M35.7035 85.2055L115.428 40.5354L37.1219 77.203L35.7035 85.2055Z" fill="white"/>
<path d="M36.7198 89.191L51.8235 117.803L117.222 206.746C118.64 208.682 120.752 209.993 123.116 210.405C125.48 210.817 127.911 210.297 129.9 208.955L227.782 142.796C228.906 142.036 229.857 141.047 230.572 139.894C231.288 138.741 231.752 137.45 231.934 136.105C232.116 134.76 232.013 133.392 231.63 132.09C231.247 130.788 230.594 129.582 229.713 128.55L169.131 57.5698L155.75 29.1875C154.191 25.3696 148.967 24.1014 145.264 25.9176L40.6305 77.1762C39.5719 77.6942 38.6282 78.4196 37.8554 79.3094C37.0825 80.1991 36.4963 81.2351 36.1316 82.3557C35.7668 83.4764 35.6309 84.6589 35.732 85.8331C35.833 87.0073 36.169 88.1492 36.7198 89.191V89.191Z" stroke="black" stroke-width="1.2" stroke-linecap="round" stroke-linejoin="round"/>
<path d="M47.1747 85.3956L59.2205 107.145L158.662 55.0867L149.056 35.3787L47.1747 85.3956Z" fill="white" stroke="black" stroke-width="1.2" stroke-linecap="round" stroke-linejoin="round"/>
<path d="M149.056 35.3787V40.8978L49.7951 90.1326L47.1747 85.3956L149.056 35.3787Z" fill="black" stroke="black" stroke-width="1.2" stroke-linecap="round" stroke-linejoin="round"/>
<path d="M149.056 40.8978L157.133 55.891L158.662 55.0867L149.056 35.3787V40.8978Z" fill="#6EDBFF" stroke="black" stroke-width="1.2" stroke-linecap="round" stroke-linejoin="round"/>
<path d="M69.1718 120.821L74.8456 128.086L110.983 109.35L105.455 102.373L69.1718 120.821Z" fill="white" stroke="black" stroke-width="1.2" stroke-linecap="round" stroke-linejoin="round"/>
<path d="M70.6874 122.757L104.885 104.998L105.455 102.373L69.1718 120.821L70.6874 122.757Z" fill="black" stroke="black" stroke-width="1.2" stroke-linecap="round" stroke-linejoin="round"/>
<path d="M104.885 104.998L109.264 110.238L110.983 109.35L105.455 102.373L104.885 104.998Z" fill="#6EDBFF" stroke="black" stroke-width="1.2" stroke-linecap="round" stroke-linejoin="round"/>
<path d="M140.788 48.4538L144.602 46.4609" stroke="black" stroke-width="1.2" stroke-linecap="round" stroke-linejoin="round"/>
<path d="M146.21 47.4551L147.942 50.1594" stroke="black" stroke-width="1.2" stroke-linecap="round" stroke-linejoin="round"/>
<path d="M148.866 51.6929L150.218 54.1497" stroke="black" stroke-width="1.2" stroke-linecap="round" stroke-linejoin="round"/>
<path d="M146.391 58.1136L149.966 56.1118" stroke="black" stroke-width="1.2" stroke-linecap="round" stroke-linejoin="round"/>
<path d="M140.293 50.2656L141.857 53.1202" stroke="black" stroke-width="1.2" stroke-linecap="round" stroke-linejoin="round"/>
<path d="M142.83 54.6182L144.451 57.2341" stroke="black" stroke-width="1.2" stroke-linecap="round" stroke-linejoin="round"/>
<path d="M132.869 95.1566L132.807 92.165L130.545 93.0488C128.53 92.6953 125.454 93.2256 122.295 94.6308C120.096 95.555 118.103 96.9068 116.431 98.6077L114.933 98.8905C114.933 98.8905 114.933 101.811 115.123 102.218C116.007 104.242 120.691 104.136 125.552 101.975C129.789 100.097 132.768 97.2776 132.869 95.2406C132.872 95.2126 132.872 95.1845 132.869 95.1566V95.1566Z" fill="black" stroke="black" stroke-width="1.2" stroke-linecap="round" stroke-linejoin="round"/>
<path d="M156.029 83.3583C156.029 83.2214 155.905 80.2166 155.905 80.2166L152.295 81.1268C149.913 81.2688 147.584 81.8816 145.441 82.9297C143.646 83.7438 141.983 84.8238 140.51 86.1334L138.128 87.1409C138.128 87.1409 138.221 90.2341 138.402 90.6318C139.334 92.6424 144.001 92.4568 148.826 90.212C153.028 88.2633 155.962 85.3954 156.029 83.3583V83.3583Z" fill="black" stroke="black" stroke-width="1.2" stroke-linecap="round" stroke-linejoin="round"/>
<path d="M169.572 75.6121V75.5812L169.546 73.2039L167.124 73.9904C166.114 74.0017 165.117 74.215 164.19 74.6179C163.659 74.8384 163.151 75.1123 162.675 75.4354L160.713 76.0717V78.4048H160.735C160.748 78.5094 160.775 78.6119 160.814 78.7097C161.34 79.9691 163.704 80.1856 166.117 79.187C168.167 78.3341 169.564 76.8671 169.59 75.6519L169.572 75.6121Z" fill="black" stroke="black" stroke-width="1.2" stroke-linecap="round" stroke-linejoin="round"/>
<path d="M276.089 60.5837L273.186 68.277L309.102 77.203L312.319 69.2093L276.089 60.5837Z" fill="#6EDBFF"/>
<path d="M271.683 73.8579L297.056 80.548" stroke="#6EDBFF" stroke-width="1.2" stroke-linecap="round" stroke-linejoin="round"/>
<path d="M270.026 78.6614L292.668 85.2057" stroke="#6EDBFF" stroke-width="1.2" stroke-linecap="round" stroke-linejoin="round"/>
<path d="M267.649 83.3186L288.413 89.0764" stroke="#6EDBFF" stroke-width="1.2" stroke-linecap="round" stroke-linejoin="round"/>
<path d="M232.448 172.725L225.219 189.658L257.989 199.468L265.015 182.451L232.448 172.725Z" fill="#6EDBFF"/>
<path d="M236.88 165.226L267.936 174.033L268.943 187.245C268.943 187.245 266.385 187.078 264.883 185.562C263.451 184.117 263.742 183.154 263.742 183.154C263.742 183.154 261.06 185.434 256.946 184.161C252.832 182.888 253.133 179.844 253.133 179.844C252.127 180.539 250.977 180.998 249.768 181.185C248.56 181.373 247.325 181.284 246.156 180.926C242.262 179.663 242.784 176.592 242.784 176.592C242.784 176.592 239.73 179.243 236.54 178.006C235.658 177.711 234.888 177.15 234.338 176.4C233.788 175.649 233.484 174.747 233.469 173.817C233.469 173.817 233.283 174.727 230.477 174.532C227.671 174.338 227.062 173.335 227.062 173.335L236.88 165.226Z" fill="black"/>
<path d="M235.528 182.31L233.942 186.052L242.417 188.487L244.061 184.621L235.528 182.31Z" fill="white"/>
<path d="M219.077 186.446L197.243 179.924" stroke="#6EDBFF" stroke-width="1.2" stroke-linecap="round" stroke-linejoin="round"/>
<path d="M221.008 181.748L201.097 176.061" stroke="#6EDBFF" stroke-width="1.2" stroke-linecap="round" stroke-linejoin="round"/>
<path d="M222.921 177.559L205.608 172.915" stroke="#6EDBFF" stroke-width="1.2" stroke-linecap="round" stroke-linejoin="round"/>
<path d="M125.486 99.1177C130.346 96.959 133.555 93.5655 132.655 91.5381C131.754 89.5108 127.085 89.6172 122.225 91.7759C117.365 93.9346 114.155 97.3281 115.056 99.3555C115.956 101.383 120.626 101.276 125.486 99.1177Z" fill="white" stroke="black" stroke-width="1.2" stroke-linecap="round" stroke-linejoin="round"/>
<path d="M148.71 87.3581C153.532 85.1174 156.684 81.6701 155.749 79.6583C154.815 77.6464 150.147 77.8319 145.325 80.0726C140.502 82.3132 137.35 85.7606 138.285 87.7724C139.22 89.7842 143.887 89.5988 148.71 87.3581Z" fill="white" stroke="black" stroke-width="1.2" stroke-linecap="round" stroke-linejoin="round"/>
<path d="M166.096 77.0485C168.485 76.0522 169.997 74.2219 169.471 72.9605C168.945 71.699 166.581 71.4841 164.191 72.4804C161.801 73.4767 160.29 75.307 160.816 76.5685C161.342 77.8299 163.706 78.0448 166.096 77.0485Z" fill="white" stroke="black" stroke-width="1.2" stroke-linecap="round" stroke-linejoin="round"/>
<path d="M118.84 179.402L127.912 191.275L147.571 177.97L138.455 167.272L118.84 179.402Z" fill="white" stroke="black" stroke-width="1.2" stroke-linecap="round" stroke-linejoin="round"/>
<path d="M143.068 164.36L152.025 175.169L171.314 162.575L162.237 152.518L143.068 164.36Z" fill="white" stroke="black" stroke-width="1.2" stroke-linecap="round" stroke-linejoin="round"/>
<path d="M166.444 149.584L175.114 160.034L194.402 147.984L185.613 137.741L166.444 149.584Z" fill="white" stroke="black" stroke-width="1.2" stroke-linecap="round" stroke-linejoin="round"/>
<path d="M189.682 134.931L198.586 145.306L218.153 133.013L208.851 123.088L189.682 134.931Z" fill="white" stroke="black" stroke-width="1.2" stroke-linecap="round" stroke-linejoin="round"/>
<path d="M130.748 149.615L139.559 160.419L159.188 148.629L150.399 138.386L130.748 149.615Z" fill="white" stroke="black" stroke-width="1.2" stroke-linecap="round" stroke-linejoin="round"/>
<path d="M106.975 163.799L115.601 174.718L135.119 162.995L126.63 152.571L106.975 163.799Z" fill="white" stroke="black" stroke-width="1.2" stroke-linecap="round" stroke-linejoin="round"/>
<path d="M154.606 135.448L163.391 145.832L182.564 133.853L173.775 123.61L154.606 135.448Z" fill="white" stroke="black" stroke-width="1.2" stroke-linecap="round" stroke-linejoin="round"/>
<path d="M177.849 120.795L186.749 131.171L205.807 119.2L197.018 108.953L177.849 120.795Z" fill="white" stroke="black" stroke-width="1.2" stroke-linecap="round" stroke-linejoin="round"/>
<path d="M118.955 135.156L127.315 145.403L146.714 134.056L138.336 124.317L118.955 135.156Z" fill="white" stroke="black" stroke-width="1.2" stroke-linecap="round" stroke-linejoin="round"/>
<path d="M95.7113 148.713L103.634 159.482L123.356 148.413L114.681 137.914L95.7113 148.713Z" fill="white" stroke="black" stroke-width="1.2" stroke-linecap="round" stroke-linejoin="round"/>
<path d="M143.011 121.807L151.079 131.047L170.005 119.695L161.906 110.632L143.011 121.807Z" fill="white" stroke="black" stroke-width="1.2" stroke-linecap="round" stroke-linejoin="round"/>
<path d="M166.369 108.024L174.38 116.862L193.496 105.399L185.489 96.6235L166.369 108.024Z" fill="white" stroke="black" stroke-width="1.2" stroke-linecap="round" stroke-linejoin="round"/>
<path d="M84.1075 134.069L92.4017 144.63L111.535 133.888L103.197 123.786L84.1075 134.069Z" fill="white" stroke="black" stroke-width="1.2" stroke-linecap="round" stroke-linejoin="round"/>
<path d="M107.718 121.369L116.144 131.426L135.291 120.675L127.165 110.75L107.718 121.369Z" fill="white" stroke="black" stroke-width="1.2" stroke-linecap="round" stroke-linejoin="round"/>
<path d="M131.712 108.095L140.112 117.847L158.742 107.388L150.784 97.989L131.712 108.095Z" fill="white" stroke="black" stroke-width="1.2" stroke-linecap="round" stroke-linejoin="round"/>
<path d="M155.914 95.572L163.682 104.542L182.639 93.504L174.765 84.6221L155.914 95.572Z" fill="white" stroke="black" stroke-width="1.2" stroke-linecap="round" stroke-linejoin="round"/>
<path d="M92.4017 147.25V144.63L111.535 133.888V136.508L92.4017 147.25Z" fill="black" stroke="black" stroke-width="1.2" stroke-linecap="round" stroke-linejoin="round"/>
<path d="M116.144 134.047V131.426L135.291 120.675V123.296L116.144 134.047Z" fill="black" stroke="black" stroke-width="1.2" stroke-linecap="round" stroke-linejoin="round"/>
<path d="M140.112 120.468V117.847L158.742 107.388V109.796L140.112 120.468Z" fill="black" stroke="black" stroke-width="1.2" stroke-linecap="round" stroke-linejoin="round"/>
<path d="M163.682 107.163V104.542L182.639 93.5042V95.5722L163.682 107.163Z" fill="black" stroke="black" stroke-width="1.2" stroke-linecap="round" stroke-linejoin="round"/>
<path d="M174.38 119.482V116.862L193.496 105.399V108.02L174.38 119.482Z" fill="black" stroke="black" stroke-width="1.2" stroke-linecap="round" stroke-linejoin="round"/>
<path d="M151.08 133.667V131.047L170.006 119.695V122.315L151.08 133.667Z" fill="black" stroke="black" stroke-width="1.2" stroke-linecap="round" stroke-linejoin="round"/>
<path d="M103.634 162.102V159.482L123.356 148.413V150.392L103.634 162.102Z" fill="black" stroke="black" stroke-width="1.2" stroke-linecap="round" stroke-linejoin="round"/>
<path d="M127.315 148.028V145.404L146.714 134.056V136.38L127.315 148.028Z" fill="black" stroke="black" stroke-width="1.2" stroke-linecap="round" stroke-linejoin="round"/>
<path d="M115.826 177.626L115.601 174.718L135.119 162.995V165.615L115.826 177.626Z" fill="black" stroke="black" stroke-width="1.2" stroke-linecap="round" stroke-linejoin="round"/>
<path d="M127.912 193.896V191.275L147.571 177.97V180.591L127.912 193.896Z" fill="black" stroke="black" stroke-width="1.2" stroke-linecap="round" stroke-linejoin="round"/>
<path d="M152.025 177.794V175.169L171.314 162.575V165.196L152.025 177.794Z" fill="black" stroke="black" stroke-width="1.2" stroke-linecap="round" stroke-linejoin="round"/>
<path d="M175.114 162.655V160.034L194.402 147.984V150.609L175.114 162.655Z" fill="black" stroke="black" stroke-width="1.2" stroke-linecap="round" stroke-linejoin="round"/>
<path d="M198.587 147.927V145.306L218.153 133.013V135.633L198.587 147.927Z" fill="black" stroke="black" stroke-width="1.2" stroke-linecap="round" stroke-linejoin="round"/>
<path d="M139.56 163.043V160.419L159.188 148.629V151.06L139.56 163.043Z" fill="black" stroke="black" stroke-width="1.2" stroke-linecap="round" stroke-linejoin="round"/>
<path d="M163.39 148.452V145.832L182.564 133.853V136.473L163.39 148.452Z" fill="black" stroke="black" stroke-width="1.2" stroke-linecap="round" stroke-linejoin="round"/>
<path d="M186.748 133.795V131.17L205.807 119.2V121.82L186.748 133.795Z" fill="black" stroke="black" stroke-width="1.2" stroke-linecap="round" stroke-linejoin="round"/>
<path d="M95.7113 151.334V148.713L103.634 159.482V162.102L95.7113 151.334Z" fill="#6EDBFF" stroke="black" stroke-width="1.2" stroke-linecap="round" stroke-linejoin="round"/>
<path d="M106.975 166.419V163.799L115.601 174.718L115.826 177.626L106.975 166.419Z" fill="#6EDBFF" stroke="black" stroke-width="1.2" stroke-linecap="round" stroke-linejoin="round"/>
<path d="M118.84 182.022V179.402L127.912 191.276V193.896L118.84 182.022Z" fill="#6EDBFF" stroke="black" stroke-width="1.2" stroke-linecap="round" stroke-linejoin="round"/>
<path d="M107.718 123.99V121.369L116.144 131.426V134.047L107.718 123.99Z" fill="#6EDBFF" stroke="black" stroke-width="1.2" stroke-linecap="round" stroke-linejoin="round"/>
<path d="M131.712 110.751V108.095L140.112 117.848V120.468L131.712 110.751Z" fill="#6EDBFF" stroke="black" stroke-width="1.2" stroke-linecap="round" stroke-linejoin="round"/>
<path d="M155.914 98.1924V95.572L163.682 104.542V107.163L155.914 98.1924Z" fill="#6EDBFF" stroke="black" stroke-width="1.2" stroke-linecap="round" stroke-linejoin="round"/>
<path d="M166.369 110.645V108.024L174.38 116.862V119.482L166.369 110.645Z" fill="#6EDBFF" stroke="black" stroke-width="1.2" stroke-linecap="round" stroke-linejoin="round"/>
<path d="M143.011 124.427V121.807L151.079 131.047V133.667L143.011 124.427Z" fill="#6EDBFF" stroke="black" stroke-width="1.2" stroke-linecap="round" stroke-linejoin="round"/>
<path d="M118.955 137.777V135.156L127.315 145.404V148.028L118.955 137.777Z" fill="#6EDBFF" stroke="black" stroke-width="1.2" stroke-linecap="round" stroke-linejoin="round"/>
<path d="M130.748 152.235V149.615L139.559 160.419V163.044L130.748 152.235Z" fill="#6EDBFF" stroke="black" stroke-width="1.2" stroke-linecap="round" stroke-linejoin="round"/>
<path d="M143.068 166.981V164.36L152.025 175.169V177.794L143.068 166.981Z" fill="#6EDBFF" stroke="black" stroke-width="1.2" stroke-linecap="round" stroke-linejoin="round"/>
<path d="M166.444 152.204V149.583L175.114 160.034V162.654L166.444 152.204Z" fill="#6EDBFF" stroke="black" stroke-width="1.2" stroke-linecap="round" stroke-linejoin="round"/>
<path d="M154.606 138.068V135.448L163.391 145.832V148.452L154.606 138.068Z" fill="#6EDBFF" stroke="black" stroke-width="1.2" stroke-linecap="round" stroke-linejoin="round"/>
<path d="M177.849 123.415V120.795L186.749 131.17V133.795L177.849 123.415Z" fill="#6EDBFF" stroke="black" stroke-width="1.2" stroke-linecap="round" stroke-linejoin="round"/>
<path d="M189.682 137.551V134.931L198.586 145.306V147.926L189.682 137.551Z" fill="#6EDBFF" stroke="black" stroke-width="1.2" stroke-linecap="round" stroke-linejoin="round"/>
<path d="M84.1075 136.689V134.069L92.4017 144.63V147.251L84.1075 136.689Z" fill="#6EDBFF" stroke="black" stroke-width="1.2" stroke-linecap="round" stroke-linejoin="round"/>
<path d="M120.205 160.224L124.465 165.779L123.042 166.662L119.745 162.363L119.71 162.385L118.99 164.011L118.106 162.875L118.906 161.108L120.205 160.224Z" fill="black"/>
<path d="M144.959 152.531L144.182 151.647L144.699 148.757C144.732 148.563 144.756 148.367 144.769 148.17C144.78 148.011 144.765 147.851 144.725 147.697C144.677 147.548 144.599 147.411 144.495 147.295C144.383 147.162 144.241 147.059 144.08 146.994C143.93 146.936 143.767 146.916 143.607 146.937C143.449 146.957 143.297 147.015 143.165 147.105C143.03 147.184 142.921 147.301 142.852 147.44C142.79 147.57 142.775 147.716 142.807 147.856C142.855 148.021 142.942 148.172 143.059 148.298L141.835 149.089C141.559 148.792 141.369 148.425 141.287 148.028C141.23 147.674 141.293 147.311 141.468 146.999C141.674 146.637 141.967 146.333 142.321 146.115C142.693 145.867 143.113 145.701 143.554 145.629C143.948 145.561 144.352 145.593 144.73 145.722C145.099 145.848 145.428 146.071 145.684 146.367C145.854 146.559 145.985 146.782 146.068 147.025C146.164 147.322 146.205 147.633 146.188 147.944C146.166 148.418 146.109 148.889 146.015 149.354L145.87 150.33L145.896 150.361L148.07 148.965L148.954 149.959L144.959 152.531Z" fill="black"/>
<path d="M170.62 137.533C170.205 137.819 169.738 138.02 169.245 138.125C168.823 138.218 168.385 138.206 167.968 138.09C167.587 137.978 167.252 137.746 167.014 137.427L168.477 136.46C168.57 136.573 168.697 136.654 168.839 136.689C168.996 136.727 169.159 136.727 169.316 136.689C169.502 136.644 169.679 136.566 169.838 136.46C169.994 136.36 170.127 136.229 170.231 136.075C170.319 135.945 170.367 135.791 170.368 135.633C170.37 135.484 170.32 135.338 170.226 135.222C170.135 135.098 170.004 135.008 169.855 134.966C169.684 134.922 169.505 134.922 169.334 134.966C169.122 135.019 168.921 135.11 168.742 135.236L168.158 135.62L167.465 134.688L168.048 134.299C168.211 134.199 168.353 134.066 168.463 133.91C168.556 133.78 168.608 133.627 168.614 133.468C168.618 133.32 168.569 133.176 168.477 133.061C168.394 132.945 168.279 132.856 168.145 132.805C168.004 132.755 167.851 132.742 167.703 132.77C167.545 132.803 167.394 132.867 167.261 132.96C167.112 133.056 166.983 133.181 166.881 133.327C166.794 133.45 166.742 133.595 166.731 133.746C166.726 133.892 166.769 134.035 166.855 134.153L165.463 135.072C165.235 134.77 165.117 134.399 165.127 134.02C165.147 133.624 165.275 133.24 165.498 132.911C165.762 132.52 166.103 132.188 166.501 131.935C166.892 131.67 167.33 131.484 167.792 131.387C168.182 131.305 168.586 131.323 168.967 131.44C169.321 131.543 169.631 131.759 169.851 132.054C169.96 132.188 170.038 132.345 170.078 132.514C170.118 132.682 170.119 132.857 170.081 133.026C169.992 133.393 169.786 133.72 169.493 133.958L169.528 133.998C169.939 133.758 170.417 133.658 170.889 133.711C171.084 133.739 171.27 133.807 171.438 133.911C171.605 134.014 171.749 134.151 171.861 134.312C172.091 134.607 172.203 134.977 172.175 135.35C172.136 135.763 171.983 136.156 171.733 136.486C171.435 136.905 171.057 137.261 170.62 137.533V137.533Z" fill="black"/>
<path d="M135.587 181.435C135.105 181.778 134.541 181.99 133.952 182.049C133.387 182.092 132.82 181.981 132.313 181.726C131.734 181.427 131.228 181.003 130.832 180.485C130.423 180.009 130.132 179.442 129.984 178.832C129.87 178.325 129.926 177.794 130.143 177.321C130.397 176.811 130.787 176.381 131.27 176.079C131.751 175.738 132.31 175.522 132.896 175.452C133.456 175.398 134.019 175.502 134.522 175.752C135.098 176.048 135.6 176.467 135.994 176.981C136.408 177.462 136.703 178.034 136.855 178.651C136.973 179.163 136.922 179.699 136.71 180.18C136.459 180.694 136.07 181.128 135.587 181.435ZM134.765 180.414C134.918 180.314 135.04 180.173 135.118 180.008C135.196 179.843 135.227 179.659 135.207 179.477C135.115 178.928 134.861 178.419 134.478 178.015C134.229 177.692 133.931 177.41 133.594 177.179C133.354 177.013 133.073 176.914 132.781 176.892C132.531 176.877 132.284 176.947 132.079 177.091C131.927 177.189 131.805 177.327 131.727 177.49C131.649 177.653 131.618 177.835 131.637 178.015C131.721 178.555 131.968 179.057 132.344 179.455C132.592 179.784 132.89 180.072 133.227 180.308C133.47 180.479 133.754 180.583 134.049 180.609C134.301 180.631 134.553 180.569 134.765 180.432V180.414Z" fill="black"/>
<path d="M107.686 152.182L106.909 151.033L106.56 145.695L107.51 145.121L108.57 146.681L108.018 147.012L108.23 150.149L108.261 150.198L111.628 148.161L112.415 149.319L107.686 152.182ZM111.115 151.532L110.187 150.171L109.874 149.654L107.001 145.43L108.287 144.652L112.423 150.742L111.115 151.532Z" fill="black"/>
<path d="M135.154 137.564C134.766 137.824 134.325 137.994 133.864 138.063C133.459 138.125 133.046 138.078 132.666 137.926C132.303 137.772 131.995 137.512 131.782 137.18L133.166 136.296C133.233 136.395 133.321 136.479 133.424 136.54C133.527 136.601 133.643 136.638 133.762 136.649C133.986 136.665 134.209 136.616 134.406 136.51C134.603 136.404 134.766 136.244 134.876 136.048C134.963 135.883 135.001 135.696 134.986 135.509C134.974 135.306 134.905 135.11 134.787 134.944C134.683 134.759 134.53 134.606 134.345 134.502C134.18 134.413 133.994 134.37 133.806 134.378C133.609 134.389 133.418 134.453 133.254 134.564C133.082 134.675 132.939 134.827 132.839 135.006C132.74 135.166 132.689 135.352 132.693 135.54L131.288 136.106L129.52 132.765L133.294 130.357L134.014 131.501L131.407 133.163L132.158 134.639L132.189 134.617C132.193 134.365 132.268 134.12 132.406 133.91C132.568 133.653 132.787 133.437 133.046 133.278C133.375 133.06 133.757 132.936 134.151 132.92C134.53 132.907 134.906 132.997 135.238 133.181C135.609 133.397 135.919 133.703 136.141 134.071C136.364 134.438 136.491 134.855 136.511 135.284C136.519 135.721 136.404 136.151 136.179 136.526C135.929 136.951 135.577 137.308 135.154 137.564Z" fill="black"/>
<path d="M158.759 123.318C158.466 123.517 158.142 123.667 157.801 123.76C157.451 123.857 157.085 123.876 156.727 123.817C156.321 123.749 155.933 123.598 155.587 123.375C155.148 123.083 154.76 122.72 154.438 122.302C154.118 121.92 153.858 121.492 153.665 121.033C153.505 120.659 153.423 120.256 153.422 119.849C153.425 119.484 153.519 119.126 153.695 118.806C153.891 118.475 154.16 118.192 154.482 117.98C154.828 117.731 155.228 117.568 155.649 117.503C156.036 117.44 156.434 117.471 156.806 117.596C157.168 117.711 157.495 117.913 157.761 118.183L156.479 119.067C156.321 118.929 156.119 118.853 155.909 118.85C155.704 118.855 155.506 118.921 155.339 119.04C155.185 119.135 155.064 119.273 154.991 119.439C154.919 119.604 154.898 119.787 154.933 119.964C155.038 120.443 155.263 120.887 155.587 121.254L155.622 121.228C155.571 121.025 155.571 120.812 155.622 120.609C155.675 120.399 155.768 120.201 155.896 120.026C156.032 119.836 156.201 119.673 156.395 119.544C156.698 119.327 157.054 119.197 157.425 119.169C157.787 119.143 158.15 119.207 158.481 119.354C158.829 119.515 159.132 119.757 159.365 120.061C159.64 120.383 159.816 120.777 159.873 121.197C159.918 121.593 159.843 121.993 159.657 122.346C159.44 122.737 159.132 123.071 158.759 123.318V123.318ZM157.977 122.363C158.128 122.264 158.246 122.123 158.318 121.957C158.386 121.8 158.408 121.627 158.379 121.458C158.344 121.275 158.262 121.104 158.141 120.963C158.025 120.811 157.873 120.692 157.699 120.614C157.531 120.541 157.347 120.51 157.164 120.525C156.979 120.54 156.8 120.604 156.647 120.711C156.534 120.786 156.439 120.886 156.369 121.002C156.302 121.111 156.26 121.234 156.245 121.36C156.233 121.49 156.245 121.62 156.281 121.745C156.323 121.879 156.39 122.003 156.479 122.112C156.598 122.258 156.749 122.375 156.921 122.452C157.089 122.526 157.273 122.558 157.456 122.545C157.637 122.531 157.811 122.468 157.96 122.363H157.977Z" fill="black"/>
<path d="M97.8855 138.13L97.532 132.173L97.5099 132.138L94.5183 133.702L93.8025 132.553L98.3893 130.176L99.1007 131.307L99.463 137.295L97.8855 138.13Z" fill="black"/>
<path d="M123.851 124.016C123.427 124.293 122.954 124.488 122.459 124.591C122.043 124.683 121.61 124.673 121.199 124.56C120.842 124.46 120.53 124.24 120.316 123.937C120.153 123.716 120.055 123.454 120.033 123.181C120.011 122.91 120.057 122.639 120.165 122.39C120.278 122.129 120.448 121.898 120.665 121.714L120.634 121.67C120.281 121.819 119.889 121.846 119.52 121.745C119.162 121.651 118.849 121.434 118.636 121.131C118.43 120.854 118.329 120.512 118.354 120.167C118.388 119.794 118.523 119.437 118.742 119.133C119.001 118.766 119.334 118.456 119.719 118.223C120.102 117.97 120.532 117.796 120.983 117.71C121.37 117.63 121.77 117.647 122.149 117.759C122.49 117.862 122.787 118.075 122.993 118.364C123.211 118.654 123.308 119.017 123.263 119.376C123.216 119.738 123.042 120.072 122.772 120.318L122.803 120.362C123.068 120.242 123.355 120.181 123.645 120.181C123.935 120.181 124.222 120.242 124.487 120.362C124.742 120.48 124.961 120.663 125.123 120.892C125.338 121.185 125.435 121.547 125.397 121.908C125.352 122.312 125.2 122.697 124.955 123.022C124.655 123.422 124.28 123.76 123.851 124.016ZM121.389 120.587C121.53 120.503 121.647 120.384 121.73 120.242C121.804 120.116 121.839 119.97 121.831 119.823C121.82 119.671 121.766 119.526 121.677 119.403C121.587 119.279 121.467 119.18 121.327 119.116C121.188 119.058 121.036 119.036 120.886 119.054C120.718 119.071 120.557 119.129 120.417 119.222C120.278 119.306 120.161 119.423 120.077 119.562C120.004 119.688 119.968 119.832 119.971 119.977C119.981 120.127 120.035 120.269 120.126 120.388C120.214 120.517 120.336 120.618 120.479 120.68C120.618 120.74 120.77 120.764 120.921 120.751C121.089 120.734 121.251 120.678 121.394 120.587H121.389ZM123.157 123.048C123.319 122.953 123.456 122.82 123.555 122.66C123.64 122.52 123.683 122.359 123.678 122.196C123.668 122.035 123.611 121.882 123.515 121.754C123.416 121.613 123.28 121.503 123.121 121.436C122.959 121.369 122.783 121.346 122.609 121.369C122.42 121.393 122.238 121.459 122.079 121.564C121.921 121.662 121.788 121.795 121.69 121.953C121.605 122.095 121.562 122.259 121.566 122.425C121.571 122.593 121.628 122.755 121.73 122.889C121.826 123.029 121.961 123.136 122.118 123.199C122.279 123.265 122.454 123.288 122.627 123.265C122.819 123.235 123.002 123.161 123.161 123.048H123.157Z" fill="black"/>
<path d="M143.113 104.989C143.408 104.799 143.734 104.662 144.076 104.582C144.427 104.499 144.791 104.492 145.145 104.56C145.548 104.644 145.929 104.808 146.268 105.042C147.087 105.654 147.726 106.475 148.119 107.419C148.267 107.794 148.339 108.195 148.331 108.599C148.32 108.958 148.216 109.308 148.031 109.615C147.828 109.938 147.555 110.21 147.231 110.41C146.878 110.646 146.476 110.797 146.055 110.852C145.669 110.898 145.278 110.854 144.911 110.724C144.554 110.596 144.231 110.385 143.97 110.11L145.269 109.279C145.423 109.42 145.622 109.501 145.83 109.509C146.034 109.509 146.234 109.449 146.405 109.337C146.558 109.25 146.682 109.12 146.761 108.962C146.839 108.805 146.869 108.627 146.846 108.453C146.755 107.975 146.54 107.528 146.223 107.158L146.192 107.18C146.241 107.381 146.241 107.59 146.192 107.79C146.136 107.997 146.038 108.191 145.905 108.36C145.762 108.535 145.59 108.684 145.397 108.802C145.089 109.006 144.732 109.124 144.363 109.142C144.003 109.158 143.644 109.084 143.32 108.926C142.971 108.756 142.668 108.504 142.436 108.192C142.171 107.87 142.005 107.476 141.959 107.061C141.925 106.669 142.01 106.277 142.202 105.934C142.42 105.547 142.734 105.221 143.113 104.989V104.989ZM143.868 105.956C143.715 106.049 143.593 106.184 143.515 106.345C143.445 106.499 143.42 106.669 143.444 106.836C143.474 107.018 143.552 107.188 143.669 107.331C143.784 107.485 143.936 107.608 144.111 107.688C144.277 107.767 144.458 107.805 144.641 107.799C144.825 107.788 145.003 107.731 145.158 107.631C145.271 107.559 145.368 107.464 145.441 107.353C145.51 107.247 145.555 107.128 145.574 107.004C145.591 106.876 145.582 106.747 145.547 106.624C145.509 106.489 145.446 106.364 145.362 106.252C145.245 106.101 145.093 105.979 144.92 105.899C144.754 105.823 144.572 105.786 144.39 105.793C144.204 105.798 144.023 105.854 143.868 105.956Z" fill="black"/>
<path d="M171.287 92.5628L172.087 93.6233L168.008 96.1199L167.208 95.0638L171.287 92.5628ZM168.994 93.4995C168.861 93.5821 168.708 93.6265 168.552 93.6277C168.39 93.6315 168.229 93.5966 168.083 93.5261C167.931 93.4581 167.798 93.3515 167.699 93.2167C167.627 93.1265 167.574 93.0219 167.545 92.91C167.516 92.798 167.512 92.6812 167.531 92.5672C167.549 92.4566 167.592 92.3514 167.655 92.259C167.718 92.1666 167.801 92.0893 167.898 92.0325C167.998 91.9702 168.11 91.9287 168.227 91.9104C168.344 91.8922 168.464 91.8977 168.578 91.9264C168.821 91.9744 169.037 92.1116 169.184 92.3109C169.256 92.402 169.309 92.5071 169.34 92.6196C169.37 92.732 169.377 92.8496 169.36 92.9649C169.344 93.0761 169.303 93.1822 169.239 93.2749C169.176 93.3676 169.092 93.4445 168.994 93.4995ZM171.406 96.6944C171.305 96.7579 171.191 96.8 171.073 96.8183C170.954 96.8365 170.833 96.8304 170.717 96.8004C170.471 96.7518 170.252 96.6131 170.103 96.4116C170.03 96.3215 169.978 96.2169 169.949 96.1049C169.92 95.9929 169.915 95.876 169.935 95.762C169.951 95.6514 169.993 95.546 170.055 95.4535C170.118 95.3609 170.201 95.2836 170.297 95.2273C170.503 95.1035 170.749 95.0654 170.982 95.1213C171.224 95.1704 171.44 95.3073 171.588 95.5057C171.66 95.597 171.713 95.702 171.743 95.8145C171.774 95.9269 171.781 96.0444 171.764 96.1597C171.747 96.2664 171.705 96.3679 171.643 96.4566C171.582 96.5453 171.501 96.619 171.406 96.6723V96.6944Z" fill="black"/>
<path d="M177.92 105.214L179.413 105.996L179.192 104.401L180.412 103.619L180.668 106.093L183.085 107.189L181.874 107.963L180.301 107.198L180.496 108.824L179.267 109.611L179.055 107.105L176.691 105.979L177.92 105.214Z" fill="black"/>
<path d="M192.44 118.687L193.284 119.633L190.5 121.427L189.656 120.481L192.44 118.687Z" fill="black"/>
<path d="M201.339 134.94L200.456 133.87L204.583 131.241L205.467 132.306L201.339 134.94ZM202.82 136.769L201.936 135.704L206.063 133.053L206.925 134.153L202.82 136.769Z" fill="black"/>
<path d="M178.693 150.627L177.809 149.655L182.131 146.636L182.992 147.604L178.693 150.627ZM181.344 150.795L178.251 147.304L179.453 146.464L182.546 149.951L181.344 150.795Z" fill="black"/>
<path d="M157.845 164.807C157.712 164.895 157.563 164.955 157.407 164.983C157.25 165.011 157.089 165.007 156.934 164.97C156.778 164.938 156.63 164.874 156.5 164.782C156.37 164.69 156.261 164.572 156.179 164.435C156.093 164.307 156.035 164.162 156.007 164.01C155.98 163.858 155.984 163.702 156.02 163.552C156.089 163.241 156.279 162.971 156.548 162.801C156.816 162.63 157.141 162.573 157.451 162.641C157.714 162.688 157.953 162.825 158.125 163.03C158.297 163.234 158.392 163.492 158.393 163.759C158.398 163.969 158.351 164.177 158.256 164.365C158.161 164.546 158.019 164.699 157.845 164.807Z" fill="black"/>
<path d="M261.184 62.1256L247.486 64.0654C247.601 64.9454 247.601 65.8368 247.486 66.7168C246.712 72.6027 241.016 76.7033 234.768 75.8814C228.52 75.0595 224.075 69.6376 224.852 63.7473C225.63 57.857 231.313 53.7651 237.561 54.587C237.64 54.5941 237.718 54.6059 237.795 54.6224L240.795 41.8475C240.292 41.7502 239.788 41.6707 239.271 41.6C225.409 39.775 212.758 48.8779 211.061 61.9267C209.364 74.9756 219.187 87.0434 233.049 88.8817C246.911 90.7199 259.562 81.6038 261.264 68.555C261.548 66.4193 261.521 64.2536 261.184 62.1256V62.1256Z" fill="#6EDBFF"/>
<path d="M261.184 62.1258L247.486 64.0657C246.871 59.3508 242.978 55.3827 237.799 54.605L240.8 41.8301C251.586 43.8893 259.66 52.2144 261.184 62.1258Z" fill="black"/>
<path d="M245.117 196.269L248.011 188.757C248.371 187.825 249.062 187.058 249.951 186.603C250.84 186.148 251.866 186.037 252.832 186.291V186.291C253.378 186.434 253.887 186.689 254.329 187.039C254.77 187.39 255.134 187.828 255.397 188.327C255.659 188.826 255.815 189.374 255.855 189.936C255.894 190.499 255.816 191.063 255.625 191.594L253.089 198.668L245.117 196.269Z" fill="white"/>
</svg>
